<!-- Contributors: Figma mockup (original icon); OpenAI Codex (exported icon for #31). -->
<svg preserveAspectRatio="none" overflow="visible" style="display: block;" width="34" height="34" viewBox="0 0 34 34" fill="none" xmlns="http://www.w3.org/2000/svg">
<g id="Icon">
<path id="Vector" d="M31.1667 8.5C31.1667 7.74855 30.8682 7.02788 30.3368 6.49653C29.8054 5.96518 29.0848 5.66667 28.3333 5.66667H5.66667C4.91522 5.66667 4.19455 5.96518 3.6632 6.49653C3.13184 7.02788 2.83333 7.74855 2.83333 8.5M31.1667 8.5V25.5C31.1667 26.2514 30.8682 26.9721 30.3368 27.5035C29.8054 28.0348 29.0848 28.3333 28.3333 28.3333H5.66667C4.91522 28.3333 4.19455 28.0348 3.6632 27.5035C3.13184 26.9721 2.83333 26.2514 2.83333 25.5V8.5M31.1667 8.5L17 18.4167L2.83333 8.5" stroke="#2F5FD0" stroke-width="2.83333" stroke-linecap="round" stroke-linejoin="round"/>
</g>
</svg>
